<svg xmlns="http://www.w3.org/2000/svg" version="1.1" xmlns:xlink="http://www.w3.org/1999/xlink" xmlns:svgjs="http://svgjs.dev/svgjs" width="1000" height="1000" viewBox="0 0 1000 1000"><rect width="1000" height="1000" fill="#161618"></rect><g transform="matrix(0.7,0,0,0.7,149.75009929990853,103.7710931174089)"><svg viewBox="0 0 218 247" data-background-color="#161618" preserveAspectRatio="xMidYMid meet" height="1133" width="1000" xmlns="http://www.w3.org/2000/svg" xmlns:xlink="http://www.w3.org/1999/xlink"><g id="tight-bounds" transform="matrix(1,0,0,1,0.07782621802849121,-0.09999999999999432)"><svg viewBox="0 0 217.84434740948012 247.2" height="247.2" width="217.84434740948012"><g><svg viewBox="0 0 395.52 448.81836578581397" height="247.2" width="217.84434740948012"><g transform="matrix(1,0,0,1,0,295.3154364177842)"><svg viewBox="0 0 395.52 153.50292936802973" height="153.50292936802973" width="395.52"><g><svg viewBox="0 0 395.52 153.50292936802973" height="153.50292936802973" width="395.52"><g><svg viewBox="0 0 395.52 153.50292936802973" height="153.50292936802973" width="395.52"><g transform="matrix(1,0,0,1,0,0)"><svg width="395.52" viewBox="2.049999952316284 -26.100000381469727 67.25 26.100000381469727" height="153.50292936802973" data-palette-color="#ffffff"><path d="M28.5-25.35L28.5-25.35 30.15-25.35Q33.35-25.35 34.9-26.1L34.9-26.1Q32.7-22.85 30.65-20.45L30.65-20.45 29.85-20.45Q27.3-20.45 24.9-21.25L24.9-21.25Q21.5-18.45 19.45-13.8L19.45-13.8Q24.75-12.45 31.25-12.2L31.25-12.2Q32.75-8.4 33.3 0L33.3 0 20.35 0Q19.5-3.7 17.78-6.83 16.05-9.95 14.2-11.1L14.2-11.1Q13.85-7 13.85-4.5 13.85-2 14 0L14 0 3 0Q2.05-7.35 2.05-12.43 2.05-17.5 2.8-25L2.8-25 16.7-25Q15.2-18.8 14.65-14.6L14.65-14.6Q16.9-18.3 19.38-20.83 21.85-23.35 25.25-25.1L25.25-25.1Q26.55-25.35 28.5-25.35ZM66.45-16.3L66.45-16.3 66.4-14.6Q62.4-12.45 56.4-11.25L56.4-11.25Q60.7-10.1 64.7-10.1L64.7-10.1 65.75-10.1Q68.5-6.05 69.3 0L69.3 0 56.35 0Q55.85-3.5 54.32-6.03 52.8-8.55 50.6-9.45L50.6-9.45Q50.55-8.6 50.55-6.05 50.55-3.5 50.85 0L50.85 0 39.95 0Q38.5-7.25 38.5-13.48 38.5-19.7 39.2-25L39.2-25 65.3-25Q66.45-19.95 66.45-16.3ZM51.65-21.65L51.65-21.65Q51.05-17.25 50.75-13L50.75-13Q53.5-13.4 55.25-14.95L55.25-14.95Q54.3-18.3 51.65-21.65Z" opacity="1" transform="matrix(1,0,0,1,0,0)" fill="#ffffff" class="undefined-text-0" data-fill-palette-color="primary" id="text-0"></path></svg></g></svg></g></svg></g></svg></g><g transform="matrix(1,0,0,1,86.34063934459488,0)"><svg viewBox="0 0 222.83872131081023 222.83872131081023" height="222.83872131081023" width="222.83872131081023"><g><svg></svg></g><g id="icon-0"><svg viewBox="0 0 222.83872131081023 222.83872131081023" height="222.83872131081023" width="222.83872131081023"><g><path d="M0 111.419c0-61.535 49.884-111.419 111.419-111.419 61.535 0 111.419 49.884 111.42 111.419 0 61.535-49.884 111.419-111.42 111.42-61.535 0-111.419-49.884-111.419-111.42zM111.419 208.996c53.89 0 97.576-43.686 97.577-97.577 0-53.89-43.686-97.576-97.577-97.576-53.89 0-97.576 43.686-97.576 97.576 0 53.89 43.686 97.576 97.576 97.577z" data-fill-palette-color="accent" fill="#ffffff" stroke="transparent"></path><ellipse rx="110.30516704885106" ry="110.30516704885106" cx="111.41936065540511" cy="111.41936065540511" fill="#ffffff" stroke="transparent" stroke-width="0" fill-opacity="1" data-fill-palette-color="accent"></ellipse></g><g transform="matrix(1,0,0,1,79.82661480360134,51.064445145512025)"><svg viewBox="0 0 63.185491703607546 120.70983101978618" height="120.70983101978618" width="63.185491703607546"><g><svg xmlns="http://www.w3.org/2000/svg" xmlns:xlink="http://www.w3.org/1999/xlink" version="1.1" x="0" y="0" viewBox="19.682355880737305 3.5 35.572967529296875 67.95874786376953" enable-background="new 0 0 75 75" xml:space="preserve" height="120.70983101978618" width="63.185491703607546" class="icon-a-0" data-fill-palette-color="quaternary" id="a-0"><path d="M21.2 59.5c-1.1-2.6-4.2-12.2 3.8-24.7C36 18 31.7 3.5 31.7 3.5S46 8.8 41.7 37.5c-1 6.5-0.9 9 2 9.4 5 0.7 3.1-19.7 3.1-19.7s3.9 2 6.8 12.1c1.5 5.3 1.8 9.5 1.6 12.5-1 18.1-16.5 19.6-16.5 19.6S26.9 73 21.2 59.5z" fill="#161618" data-fill-palette-color="quaternary"></path></svg></g></svg></g></svg></g></svg></g><g></g></svg></g><defs></defs></svg><rect width="217.84434740948012" height="247.2" fill="none" stroke="none" visibility="hidden"></rect></g></svg></g></svg>